<svg width="38" height="24" viewBox="0 0 38 24" fill="none" xmlns="http://www.w3.org/2000/svg">
<g clip-path="url(#clip0_668_1604)">
<path opacity="0.07" d="M35 0H3C1.3 0 0 1.3 0 3V21C0 22.7 1.4 24 3 24H35C36.7 24 38 22.7 38 21V3C38 1.3 36.6 0 35 0Z" fill="#262626"/>
<path d="M35 1C36.1 1 37 1.9 37 3V21C37 22.1 36.1 23 35 23H3C1.9 23 1 22.1 1 21V3C1 1.9 1.9 1 3 1H35Z" fill="#006FCF"/>
<path d="M22.0117 19.9366V11.5156L36.9997 11.5286V13.8546L35.2677 15.7066L36.9997 17.5736V19.9486H34.2337L32.7637 18.3266L31.3037 19.9546L22.0117 19.9346V19.9366Z" fill="white"/>
<path d="M23.0117 19.0114V12.4414H28.5837V13.9544H24.8157V14.9824H28.4937V16.4704H24.8157V17.4804H28.5837V19.0114H23.0117Z" fill="#006FCF"/>
<path d="M28.5547 19.0124L31.6377 15.7234L28.5547 12.4414H30.9407L32.8247 14.5244L34.7147 12.4424H36.9977V12.4934L33.9807 15.7234L36.9977 18.9204V19.0134H34.6907L32.7737 16.9104L30.8757 19.0144H28.5547V19.0124Z" fill="#006FCF"/>
<path d="M22.71 4.03906H26.324L27.593 6.92006V4.03906H32.053L32.823 6.19806L33.594 4.03906H37V12.4601H19L22.71 4.03906Z" fill="white"/>
<path d="M23.3926 4.95312L20.4766 11.5191H22.4766L23.0266 10.2041H26.0066L26.5566 11.5191H28.6066L25.7026 4.95312H23.3926ZM23.6426 8.73013L24.5176 6.64013L25.3906 8.73013H23.6426Z" fill="#006FCF"/>
<path d="M28.5781 11.5201V4.95312L31.3891 4.96312L32.8371 9.00012L34.2931 4.95412H36.9971V11.5191L35.2571 11.5351V7.02513L33.6131 11.5191H32.0231L30.3471 7.01013V11.5201H28.5791H28.5781Z" fill="#006FCF"/>
</g>
<defs>
<clipPath id="clip0_668_1604">
<rect width="38" height="24" fill="white"/>
</clipPath>
</defs>
</svg>
