<svg width="38" height="24" viewBox="0 0 38 24" fill="none" xmlns="http://www.w3.org/2000/svg">
<g clip-path="url(#clip0_668_1613)">
<path opacity="0.07" d="M34.3894 0H3.61507C3.48688 0 3.35846 0 3.23049 0.00067947C3.12246 0.00158543 3.01465 0.00271788 2.90661 0.00566225C2.67129 0.012004 2.43393 0.0260463 2.20155 0.0677205C1.9685 0.107648 1.7427 0.182074 1.53159 0.288548C1.10719 0.504411 0.762223 0.849374 0.546361 1.27378C0.439697 1.48497 0.365262 1.71095 0.325533 1.94419C0.283406 2.17679 0.26959 2.41393 0.263248 2.64903C0.260488 2.75697 0.258827 2.86493 0.258265 2.97291C0.257812 3.10065 0.257812 3.22884 0.257812 3.35726V20.6425C0.257812 20.7709 0.257812 20.8989 0.258265 21.0273C0.258945 21.1351 0.260304 21.2432 0.263248 21.3512C0.26959 21.5858 0.283632 21.8232 0.325533 22.0556C0.365181 22.2888 0.439539 22.5148 0.546134 22.726C0.653306 22.9369 0.793196 23.1296 0.960611 23.2967C1.12774 23.4642 1.32039 23.6041 1.53137 23.7112C1.74585 23.8206 1.96555 23.8902 2.20178 23.9325C2.43393 23.974 2.67129 23.988 2.90661 23.9943C3.01465 23.9968 3.12246 23.9982 3.23049 23.9989C3.35846 23.9998 3.48688 23.9998 3.61507 23.9998H34.3894C34.5174 23.9998 34.6458 23.9998 34.7737 23.9989C34.8815 23.9984 34.9894 23.9968 35.0978 23.9943C35.3327 23.988 35.5701 23.974 35.8029 23.9325C36.036 23.8925 36.2618 23.818 36.4729 23.7112C36.8971 23.4951 37.2419 23.1502 37.4581 22.726C37.5675 22.5115 37.6368 22.2918 37.6787 22.0556C37.7208 21.8232 37.7344 21.5858 37.7408 21.3512C37.7437 21.2432 37.7453 21.1351 37.7457 21.0273C37.7466 20.8989 37.7466 20.7709 37.7466 20.6425V3.35749C37.7466 3.22907 37.7466 3.10087 37.7457 2.97268C37.7453 2.86478 37.7436 2.75689 37.7408 2.64903C37.7344 2.41393 37.7208 2.17679 37.6787 1.94419C37.6392 1.71091 37.5649 1.4849 37.4581 1.27378C37.2421 0.849448 36.8972 0.504513 36.4729 0.288548C36.2617 0.182184 36.0359 0.107836 35.8029 0.067947C35.5701 0.0260463 35.3327 0.0122305 35.0978 0.00588874C34.9898 0.00314533 34.8818 0.00148432 34.7737 0.000905959C34.6458 0 34.5174 0 34.3894 0Z" fill="#262626"/>
<path d="M34.3863 0.800781L34.765 0.801461C34.8674 0.80214 34.97 0.803273 35.073 0.805991C35.2526 0.810973 35.4623 0.820712 35.658 0.855818C35.8279 0.886394 35.9706 0.932825 36.1074 1.00258C36.3812 1.14178 36.6036 1.36442 36.7425 1.63834C36.8118 1.77423 36.858 1.91602 36.8886 2.08747C36.9234 2.28089 36.9332 2.4913 36.9379 2.67181C36.9409 2.77373 36.9422 2.87566 36.9425 2.97984C36.9436 3.106 36.9436 3.23192 36.9436 3.3583V20.6436C36.9436 20.7699 36.9436 20.8959 36.9427 21.0245C36.9422 21.1264 36.9409 21.2284 36.9382 21.3303C36.9332 21.5106 36.9234 21.721 36.8881 21.9167C36.8624 22.0723 36.8132 22.2232 36.742 22.364C36.6028 22.638 36.3801 22.8606 36.106 22.9997C35.9701 23.069 35.8279 23.1155 35.6596 23.1458C35.4601 23.1814 35.2413 23.1911 35.0766 23.1957C34.9731 23.1979 34.8701 23.1995 34.7643 23.2C34.6386 23.2009 34.5122 23.2009 34.3863 23.2009H3.607C3.48243 23.2009 3.35786 23.2009 3.23103 23.2C3.1291 23.1995 3.02717 23.1982 2.92527 23.1959C2.75676 23.1913 2.53797 23.1814 2.34002 23.146C2.18351 23.12 2.03185 23.0703 1.89021 22.9988C1.75434 22.9298 1.63033 22.8396 1.52284 22.7316C1.41501 22.6239 1.32496 22.4999 1.25604 22.364C1.18486 22.2224 1.13553 22.0708 1.10972 21.9144C1.07439 21.7189 1.06443 21.5094 1.0599 21.3305C1.05734 21.2282 1.05583 21.1259 1.05537 21.0236L1.05469 20.7231V3.27903L1.05514 2.97893C1.05561 2.87647 1.05712 2.77402 1.05967 2.67159C1.06465 2.49221 1.07439 2.2827 1.10995 2.08566C1.13581 1.92958 1.18514 1.7783 1.25626 1.63698C1.32512 1.50154 1.41481 1.37788 1.52352 1.26939C1.63127 1.16147 1.75541 1.07127 1.89134 1.00213C2.03264 0.931144 2.18382 0.881821 2.33979 0.855818C2.5357 0.820712 2.74566 0.810973 2.92549 0.805991C3.02787 0.803273 3.13047 0.80214 3.23216 0.801461L3.61198 0.800781H34.3863Z" fill="white"/>
<path d="M10.1109 8.10171C10.4289 7.70422 10.6445 7.17039 10.5876 6.625C10.1224 6.6481 9.55485 6.93189 9.22599 7.32984C8.93087 7.67048 8.66973 8.22651 8.73768 8.74902C9.25996 8.79432 9.7818 8.48811 10.1109 8.10171Z" fill="#262626"/>
<path d="M10.5806 8.8507C9.82187 8.8054 9.17727 9.28103 8.81512 9.28103C8.45273 9.28103 7.89806 8.87335 7.29809 8.88445C6.51738 8.89577 5.79306 9.33742 5.39671 10.0395C4.58179 11.4438 5.18154 13.5275 5.97425 14.6713C6.35906 15.2375 6.82291 15.8603 7.43398 15.8379C8.01153 15.8153 8.23779 15.4642 8.93946 15.4642C9.6409 15.4642 9.84474 15.8379 10.456 15.8266C11.0898 15.8153 11.4861 15.2604 11.8709 14.6941C12.3126 14.0486 12.4931 13.4258 12.5044 13.3918C12.4931 13.3805 11.2823 12.916 11.2709 11.5231C11.2596 10.3566 12.2218 9.80173 12.267 9.76753C11.7237 8.96394 10.8748 8.87335 10.5804 8.8507" fill="#262626"/>
<path d="M18.1422 7.27344C19.7906 7.27344 20.9386 8.40974 20.9386 10.064C20.9386 11.7242 19.767 12.8664 18.101 12.8664H16.2759V15.7691H14.9573V7.27344H18.1422ZM16.2759 11.7595H17.7889C18.9372 11.7595 19.5904 11.1414 19.5904 10.0699C19.5904 8.99861 18.9369 8.38618 17.7947 8.38618H16.2759V11.7595Z" fill="#262626"/>
<path d="M21.2659 14.0114C21.2659 12.9223 22.096 12.2983 23.6266 12.2041L25.2691 12.1039V11.6328C25.2691 10.9443 24.8159 10.5674 24.0093 10.5674C23.3439 10.5674 22.861 10.9088 22.7614 11.4326H21.5719C21.6074 10.3319 22.6434 9.53125 24.0447 9.53125C25.5517 9.53125 26.5349 10.3201 26.5349 11.5447V15.7717H25.3164V14.7532H25.287C24.9395 15.4184 24.174 15.8363 23.3439 15.8363C22.1195 15.8363 21.2659 15.1065 21.2659 14.0114ZM25.2691 13.464V12.987L23.8032 13.0813C22.9788 13.1343 22.5494 13.4402 22.5494 13.9759C22.5494 14.4941 22.9967 14.8298 23.6972 14.8298C24.5919 14.8298 25.2691 14.2585 25.2691 13.464Z" fill="#262626"/>
<path d="M27.6556 18.0418V17.0235C27.7381 17.035 27.9381 17.0468 28.0441 17.0468C28.6268 17.0468 28.9566 16.7999 29.1568 16.1637L29.2746 15.7871L27.0432 9.60547H28.4207L29.9751 14.6213H30.0046L31.5587 9.60547H32.9011L30.5873 16.0989C30.0573 17.5886 29.451 18.0773 28.1677 18.0773C28.0676 18.0773 27.7437 18.0655 27.6556 18.0418Z" fill="#262626"/>
</g>
<defs>
<clipPath id="clip0_668_1613">
<rect width="38" height="24" fill="white"/>
</clipPath>
</defs>
</svg>
