<svg width="38" height="24" viewBox="0 0 38 24" fill="none" xmlns="http://www.w3.org/2000/svg">
<g clip-path="url(#clip0_668_1635)">
<path opacity="0.07" d="M35 0H3C1.3 0 0 1.3 0 3V21C0 22.7 1.4 24 3 24H35C36.7 24 38 22.7 38 21V3C38 1.3 36.6 0 35 0Z" fill="#262626"/>
<path d="M35 1C36.1 1 37 1.9 37 3V21C37 22.1 36.1 23 35 23H3C1.9 23 1 22.1 1 21V3C1 1.9 1.9 1 3 1H35Z" fill="white"/>
<path d="M18.0922 11.9738V15.1738H17.0742V7.27379H19.7652C20.0876 7.26833 20.408 7.32666 20.7078 7.44541C21.0076 7.56417 21.281 7.74102 21.5122 7.96579C21.7313 8.17018 21.9079 8.41574 22.0319 8.68843C22.156 8.96111 22.2251 9.25558 22.2354 9.55499C22.2456 9.85441 22.1967 10.1529 22.0915 10.4334C21.9863 10.7139 21.8268 10.9709 21.6222 11.1898L21.5122 11.3058C21.0422 11.7528 20.4142 11.9958 19.7652 11.9798L18.0922 11.9738ZM18.0922 8.24179V11.0298H19.7902C20.1672 11.0418 20.5312 10.8948 20.7952 10.6258C20.9841 10.429 21.1109 10.181 21.1598 9.91262C21.2088 9.64429 21.1779 9.36748 21.0708 9.11662C20.9637 8.86576 20.7852 8.65192 20.5575 8.50171C20.3298 8.3515 20.063 8.27154 19.7902 8.27179L18.0922 8.24179ZM24.5762 9.58979C25.2262 9.55979 25.8622 9.77779 26.3542 10.2028C26.7992 10.6328 27.0362 11.2328 27.0042 11.8518V15.1858H26.0352V14.4198H25.9862C25.8124 14.7071 25.5667 14.9441 25.2733 15.1074C24.9799 15.2706 24.649 15.3545 24.3132 15.3508C23.7651 15.3685 23.2306 15.1781 22.8172 14.8178C22.6213 14.658 22.4644 14.4558 22.3582 14.2264C22.252 13.997 22.1993 13.7465 22.2042 13.4938C22.1927 13.2384 22.2423 12.9839 22.3489 12.7515C22.4555 12.5192 22.6161 12.3156 22.8172 12.1578C23.3106 11.8029 23.9078 11.6218 24.5152 11.6428C25.0322 11.6228 25.5452 11.7358 26.0052 11.9738V11.7658C26.0086 11.5938 25.9728 11.4233 25.9006 11.2672C25.8283 11.1111 25.7215 10.9735 25.5882 10.8648C25.3206 10.6214 24.9699 10.4898 24.6082 10.4968C24.3455 10.4943 24.0866 10.5589 23.8558 10.6843C23.625 10.8098 23.43 10.992 23.2892 11.2138L22.3942 10.6498C22.6372 10.3016 22.9653 10.0214 23.3473 9.83584C23.7292 9.65029 24.1523 9.56559 24.5762 9.58979ZM23.2892 13.5178C23.2868 13.6473 23.3163 13.7754 23.3751 13.8909C23.4338 14.0063 23.5201 14.1055 23.6262 14.1798C23.8492 14.3558 24.1262 14.4488 24.4112 14.4428C24.8402 14.4418 25.2512 14.2728 25.5572 13.9708C25.8622 13.6848 26.0352 13.2858 26.0352 12.8678C25.6503 12.5941 25.1825 12.462 24.7112 12.4938C24.3453 12.4794 23.9844 12.5824 23.6812 12.7878C23.5611 12.8681 23.4626 12.9767 23.3943 13.104C23.3259 13.2312 23.2899 13.3733 23.2892 13.5178ZM32.5752 9.76779L29.1852 17.5578H28.1372L29.4182 14.8298L27.1942 9.76779H28.2972L29.9092 13.6528L31.4782 9.76779H32.5752Z" fill="#5F6368"/>
<path d="M13.988 11.2833C13.988 10.9753 13.964 10.6673 13.915 10.3633H9.625V12.1103H12.076C12.0261 12.3879 11.9207 12.6526 11.766 12.8886C11.6114 13.1245 11.4107 13.3268 11.176 13.4833V14.6173H12.64C13.0851 14.1866 13.4351 13.6674 13.6673 13.0931C13.8994 12.5189 14.0087 11.9023 13.988 11.2833Z" fill="#4285F4"/>
<path d="M9.63012 15.7239C10.7364 15.7542 11.8128 15.362 12.6401 14.6269L11.1741 13.4869C10.8219 13.7127 10.4228 13.8553 10.0071 13.9037C9.59152 13.9521 9.17033 13.9051 8.77561 13.7663C8.38088 13.6274 8.02301 13.4004 7.72921 13.1025C7.43542 12.8045 7.21343 12.4435 7.08012 12.0469H5.57812V13.2169C5.95397 13.9699 6.53217 14.6034 7.24788 15.0462C7.96359 15.489 8.78851 15.7237 9.63012 15.7239Z" fill="#34A853"/>
<path d="M7.07893 12.0495C6.88872 11.4868 6.88872 10.8772 7.07893 10.3145V9.14453H5.57693C5.25672 9.77599 5.08984 10.474 5.08984 11.182C5.08984 11.89 5.25672 12.5881 5.57693 13.2195L7.07893 12.0495Z" fill="#FBBC04"/>
<path d="M9.63012 8.43726C10.2771 8.42544 10.9026 8.66987 11.3701 9.11726L12.6701 7.82426C11.8412 7.04627 10.7418 6.62192 9.60512 6.64126C8.76849 6.64545 7.94937 6.88126 7.23856 7.32254C6.52775 7.76381 5.95303 8.39332 5.57812 9.14126L7.08012 10.3123C7.25575 9.77234 7.59621 9.30107 8.05363 8.96473C8.51105 8.62839 9.0624 8.44392 9.63012 8.43726Z" fill="#EA4335"/>
</g>
<defs>
<clipPath id="clip0_668_1635">
<rect width="38" height="24" fill="white"/>
</clipPath>
</defs>
</svg>
