<svg width="38" height="24" viewBox="0 0 38 24" fill="none" xmlns="http://www.w3.org/2000/svg">
<g clip-path="url(#clip0_668_1628)">
<path opacity="0.07" d="M35 0H3C1.3 0 0 1.3 0 3V21C0 22.7 1.4 24 3 24H35C36.7 24 38 22.7 38 21V3C38 1.3 36.6 0 35 0Z" fill="#262626"/>
<path d="M35 1C36.1 1 37 1.9 37 3V21C37 22.1 36.1 23 35 23H3C1.9 23 1 22.1 1 21V3C1 1.9 1.9 1 3 1H35Z" fill="white"/>
<path d="M4.983 12.986C4.983 13.334 5.059 13.6 5.159 13.762C5.21203 13.8539 5.28846 13.93 5.38051 13.9827C5.47256 14.0354 5.57694 14.0628 5.683 14.062C5.94 14.062 6.174 13.999 6.626 13.374C6.988 12.874 7.414 12.17 7.702 11.729L8.188 10.982C8.525 10.464 8.916 9.887 9.364 9.496C9.73 9.177 10.124 9 10.522 9C11.189 9 11.824 9.386 12.31 10.111C12.842 10.905 13.1 11.904 13.1 12.936C13.1 13.549 12.98 14 12.774 14.356C12.574 14.701 12.187 15.044 11.536 15.044V14.063C12.094 14.063 12.233 13.55 12.233 12.963C12.233 12.127 12.038 11.199 11.609 10.536C11.304 10.066 10.909 9.779 10.475 9.779C10.005 9.779 9.627 10.133 9.201 10.765C8.975 11.101 8.744 11.51 8.483 11.972L8.196 12.48C7.62 13.5 7.474 13.734 7.186 14.117C6.682 14.789 6.251 15.044 5.684 15.044C5.01 15.044 4.584 14.753 4.321 14.314C4.106 13.956 4 13.486 4 12.95L4.983 12.985V12.986Z" fill="#0081FB"/>
<path d="M4.77344 10.18C5.22344 9.486 5.87344 9 6.62044 9C7.05244 9 7.48144 9.128 7.93044 9.494C8.42044 9.894 8.94344 10.554 9.59544 11.64L9.82944 12.03C10.3944 12.97 10.7154 13.454 10.9034 13.682C11.1454 13.975 11.3144 14.062 11.5344 14.062C12.0924 14.062 12.2314 13.55 12.2314 12.963L13.0984 12.936C13.0984 13.549 12.9784 14 12.7724 14.356C12.5724 14.701 12.1854 15.044 11.5344 15.044C11.1294 15.044 10.7704 14.956 10.3744 14.582C10.0684 14.295 9.71144 13.784 9.43744 13.325L8.62144 11.962C8.21144 11.278 7.83644 10.768 7.61844 10.537C7.38444 10.288 7.08444 9.988 6.60444 9.988C6.21644 9.988 5.88644 10.261 5.61044 10.678L4.77344 10.18Z" fill="url(#paint0_linear_668_1628)"/>
<path d="M6.606 9.988C6.218 9.988 5.888 10.261 5.612 10.678C5.222 11.266 4.983 12.144 4.983 12.986C4.983 13.334 5.059 13.6 5.159 13.762L4.321 14.314C4.106 13.956 4 13.486 4 12.95C4 11.977 4.267 10.963 4.775 10.18C5.225 9.485 5.875 9 6.622 9L6.606 9.988Z" fill="url(#paint1_linear_668_1628)"/>
<path d="M15.0078 9.19141H16.1458L18.0788 12.6894L20.0128 9.19141H21.1248V14.9384H20.1968V10.5334L18.5018 13.5834H17.6318L15.9358 10.5334V14.9384H15.0088L15.0078 9.19141ZM24.0308 11.3344C23.3658 11.3344 22.9648 11.8344 22.8688 12.4544H25.1268C25.0808 11.8164 24.7118 11.3344 24.0308 11.3344ZM21.9498 12.8084C21.9498 11.5034 22.7928 10.5544 24.0468 10.5544C25.2808 10.5544 26.0178 11.4914 26.0178 12.8774V13.1324H22.8698C22.9808 13.8064 23.4288 14.2614 24.1498 14.2614C24.7258 14.2614 25.0858 14.0854 25.4268 13.7644L25.9198 14.3674C25.4548 14.7944 24.8648 15.0414 24.1168 15.0414C22.7588 15.0414 21.9498 14.0514 21.9498 12.8084ZM27.1428 11.4164H26.2888V10.6564H27.1428V9.40241H28.0378V10.6584H29.3348V11.4184H28.0378V13.3424C28.0378 13.9994 28.2478 14.2324 28.7638 14.2324C28.9998 14.2324 29.1348 14.2124 29.3338 14.1794V14.9314C29.0858 15.0014 28.8488 15.0334 28.5918 15.0334C27.6258 15.0334 27.1418 14.5054 27.1418 13.4494V11.4174L27.1428 11.4164ZM33.1028 12.1554C33.0151 11.918 32.8549 11.7141 32.6449 11.5727C32.4349 11.4313 32.1858 11.3595 31.9328 11.3674C31.1668 11.3674 30.6768 11.9104 30.6768 12.7954C30.6768 13.6584 31.1278 14.2284 31.8968 14.2284C32.4998 14.2284 32.9308 13.8774 33.1028 13.4404V12.1554ZM33.9978 14.9384H33.1198V14.3384C32.8738 14.6914 32.4268 15.0414 31.7028 15.0414C30.5388 15.0414 29.7618 14.0664 29.7618 12.7954C29.7618 11.5124 30.5578 10.5544 31.7518 10.5544C32.3428 10.5544 32.8068 10.7904 33.1198 11.2074V10.6574H33.9978V14.9384Z" fill="#262626"/>
</g>
<defs>
<linearGradient id="paint0_linear_668_1628" x1="5.92844" y1="12.703" x2="12.1944" y2="13.019" gradientUnits="userSpaceOnUse">
<stop stop-color="#0064E1"/>
<stop offset="0.4" stop-color="#0064E1"/>
<stop offset="0.83" stop-color="#0073EE"/>
<stop offset="1" stop-color="#0082FB"/>
</linearGradient>
<linearGradient id="paint1_linear_668_1628" x1="5.424" y1="13.399" x2="5.424" y2="11.089" gradientUnits="userSpaceOnUse">
<stop stop-color="#0082FB"/>
<stop offset="1" stop-color="#0064E0"/>
</linearGradient>
<clipPath id="clip0_668_1628">
<rect width="38" height="24" fill="white"/>
</clipPath>
</defs>
</svg>
