<svg width="38" height="24" viewBox="0 0 38 24" fill="none" xmlns="http://www.w3.org/2000/svg">
<g clip-path="url(#clip0_668_1649)">
<path opacity="0.07" d="M35 0H3C1.3 0 0 1.3 0 3V21C0 22.7 1.4 24 3 24H35C36.7 24 38 22.7 38 21V3C38 1.3 36.6 0 35 0Z" fill="#262626"/>
<path d="M35 1C36.1 1 37 1.9 37 3V21C37 22.1 36.1 23 35 23H3C1.9 23 1 22.1 1 21V3C1 1.9 1.9 1 3 1H35Z" fill="white"/>
<path d="M23.9 8.3C24.1 7.3 23.9 6.6 23.3 6C22.7 5.3 21.6 5 20.2 5H16.1C15.8 5 15.6 5.2 15.5 5.5L14 15.6C14 15.8 14.1 16 14.3 16H17L17.4 12.6L19.2 10.4L23.9 8.3Z" fill="#003087"/>
<path d="M23.9016 8.30078L23.7016 8.50078C23.2016 11.3008 21.5016 12.3008 19.1016 12.3008H18.0016C17.7016 12.3008 17.5016 12.5008 17.4016 12.8008L16.8016 16.7008L16.6016 17.7008C16.6016 17.9008 16.7016 18.1008 16.9016 18.1008H19.0016C19.3016 18.1008 19.5016 17.9008 19.5016 17.7008V17.6008L19.9016 15.2008V15.1008C19.9016 14.9008 20.2016 14.7008 20.4016 14.7008H20.7016C22.8016 14.7008 24.4016 13.9008 24.8016 11.5008C25.0016 10.5008 24.9016 9.70078 24.4016 9.10078C24.3016 8.60078 24.1016 8.40078 23.9016 8.30078Z" fill="#3086C8"/>
<path d="M23.2984 8.10078C23.1984 8.00078 23.0984 8.00078 22.9984 8.00078C22.8984 8.00078 22.7984 8.00078 22.6984 7.90078C22.3984 7.80078 21.9984 7.80078 21.5984 7.80078H18.5984C18.4984 7.80078 18.3984 7.80078 18.3984 7.90078C18.1984 8.00078 18.0984 8.10078 18.0984 8.30078L17.3984 12.7008V12.8008C17.3984 12.5008 17.6984 12.3008 17.9984 12.3008H19.2984C21.7984 12.3008 23.3984 11.3008 23.8984 8.50078V8.30078C23.7984 8.20078 23.5984 8.10078 23.3984 8.10078H23.2984Z" fill="#012169"/>
</g>
<defs>
<clipPath id="clip0_668_1649">
<rect width="38" height="24" fill="white"/>
</clipPath>
</defs>
</svg>
