<svg width="38" height="24" viewBox="0 0 38 24" fill="none" xmlns="http://www.w3.org/2000/svg">
<g clip-path="url(#clip0_668_1655)">
<path d="M35 0H3C1.34315 0 0 1.34315 0 3V21C0 22.6569 1.34315 24 3 24H35C36.6569 24 38 22.6569 38 21V3C38 1.34315 36.6569 0 35 0Z" fill="black" fill-opacity="0.07"/>
<path fill-rule="evenodd" clip-rule="evenodd" d="M35 1C36.1 1 37 1.9 37 3V21C37 22.1 36.1 23 35 23H3C1.9 23 1 22.1 1 21V3C1 1.9 1.9 1 3 1H35Z" fill="#3D95CE"/>
<path d="M24.6734 8.35844C24.6734 11.4224 22.1164 15.4034 20.0404 18.1984H15.3004L13.3984 6.56844L17.5494 6.16644L18.5544 14.4414C19.4944 12.8754 20.6534 10.4164 20.6534 8.73944C20.6534 7.82144 20.4994 7.19644 20.2594 6.68144L24.0394 5.89844C24.4764 6.63644 24.6734 7.39744 24.6734 8.35844Z" fill="white"/>
</g>
<defs>
<clipPath id="clip0_668_1655">
<rect width="38" height="24" fill="white"/>
</clipPath>
</defs>
</svg>
